<svg xmlns="http://www.w3.org/2000/svg" width="612" height="181.333" viewBox="0 305.333 612 181.333" enable-background="new 0 305.333 612 181.333"><path fill="#A6A6A6" d="M590.24 486.667H21.443C9.61 486.667 0 477.01 0 465.224V326.776c0-11.832 9.61-21.443 21.443-21.443H590.24c11.832 0 21.76 9.61 21.76 21.443v138.448c0 11.787-9.973 21.443-21.76 21.443z"/><path d="M607.603 465.224c0 9.61-7.752 17.363-17.363 17.363H21.443c-9.61 0-17.408-7.752-17.408-17.363V326.73c0-9.61 7.797-17.407 17.408-17.407H590.24c9.61 0 17.363 7.797 17.363 17.408v138.494z"/><path fill="#FFF" d="M196.837 338.29c1.043-.634 2.176-1.132 3.49-1.54 1.316-.408 2.812-.635 4.58-.635 2.856 0 5.077.68 6.71 2.04 1.63 1.36 2.447 3.173 2.447 5.44 0 1.813-.544 3.355-1.632 4.58-1.088 1.223-2.493 2.04-4.216 2.447v.136c.952.136 1.813.408 2.675.77s1.588.862 2.222 1.452c.635.635 1.133 1.315 1.496 2.176.363.816.544 1.723.544 2.72 0 1.632-.317 3.037-.997 4.125-.68 1.09-1.54 2.04-2.584 2.72-1.087.68-2.266 1.225-3.58 1.497s-2.63.453-3.944.453c-1.405 0-2.81-.136-4.17-.453-1.36-.317-2.63-.77-3.81-1.45l1.18-3.673c.77.363 1.723.725 2.947 1.088 1.18.363 2.403.544 3.672.544 2.04 0 3.58-.453 4.67-1.36 1.087-.907 1.63-2.13 1.63-3.672 0-1.043-.226-1.86-.68-2.54-.452-.68-.996-1.178-1.722-1.586-.68-.363-1.496-.635-2.357-.77s-1.723-.228-2.584-.228h-1.995v-3.627h1.995c.907 0 1.768-.09 2.54-.363.77-.227 1.45-.544 2.04-.997s.996-.952 1.36-1.54c.316-.59.498-1.225.498-1.996 0-1.315-.453-2.357-1.405-3.083-.952-.725-2.22-1.133-3.763-1.133-1.088 0-2.176.182-3.264.545s-2.04.725-2.9 1.133l-1.09-3.217zm37.808 27.926l-.363-2.448h-.136c-1.45 1.95-3.536 2.947-6.256 2.947-.952 0-1.86-.18-2.63-.5-.77-.316-1.495-.77-2.084-1.314-.59-.543-1.043-1.223-1.36-1.994-.317-.77-.5-1.587-.5-2.493 0-2.675 1.09-4.67 3.265-5.984s5.26-1.996 9.25-1.996v-.408c0-2.81-1.497-4.216-4.444-4.216-2.13 0-3.99.544-5.576 1.587l-.952-3.128c1.95-1.225 4.397-1.86 7.344-1.86 5.576 0 8.387 2.947 8.387 8.84v7.888c0 2.176.09 3.9.316 5.077h-4.26zm-.68-10.608c-2.63 0-4.624.317-5.94.997s-1.948 1.768-1.948 3.31c0 1.132.317 1.948.907 2.492s1.405.816 2.312.816c.59 0 1.18-.09 1.768-.317.544-.227 1.043-.5 1.45-.907.41-.364.772-.862 1.044-1.406.272-.544.408-1.133.408-1.723v-3.262zm27.518-10.744v3.9h-8.885v17.452h-4.76v-21.352h13.645zm27.2 10.427c0 1.724-.227 3.265-.68 4.67-.453 1.405-1.133 2.63-1.95 3.627-.815.997-1.812 1.768-2.99 2.312-1.18.543-2.45.86-3.854.86-2.812 0-4.852-.997-6.076-3.037h-.09v11.243h-4.76v-23.03c0-1.132 0-2.31-.046-3.444l-.136-3.58h4.17l.273 3.4h.09c1.588-2.54 3.99-3.81 7.21-3.81 1.268 0 2.402.273 3.49.772 1.088.544 1.995 1.27 2.81 2.22s1.406 2.086 1.86 3.446c.45 1.268.678 2.72.678 4.35zm-4.85.182c0-1.043-.137-2.04-.364-2.9s-.636-1.633-1.09-2.268-1.087-1.133-1.767-1.496-1.45-.544-2.312-.544c-.68 0-1.314.136-1.994.453s-1.224.68-1.677 1.18c-.5.498-.862 1.087-1.18 1.812s-.453 1.45-.453 2.22v3.58c0 .772.136 1.542.363 2.177.272.68.59 1.27 1.043 1.768.453.5.997.907 1.632 1.18s1.315.407 2.085.407c1.813 0 3.173-.68 4.17-2.04.998-1.36 1.542-3.263 1.542-5.53zm30.372-10.608l-5.395 14.824c-1.27 3.536-2.54 6.392-3.763 8.66-1.224 2.22-2.403 3.898-3.49 4.895-1.633 1.45-3.4 2.357-5.214 2.675l-1.133-3.99c1.224-.316 2.403-.95 3.536-1.903s1.995-2.13 2.675-3.536c.228-.454.364-.772.364-.953s-.09-.5-.272-.997l-7.752-19.675h5.213l4.035 11.923c.227.544.408 1.18.635 1.904.227.68.408 1.496.68 2.312h.09c.137-.453.318-1.043.5-1.768s.408-1.54.68-2.493l3.627-11.877h4.985v-.002zm8.206 8.885h2.177c1.632 0 2.856-.273 3.717-.862.86-.59 1.315-1.315 1.315-2.176s-.364-1.587-1.134-2.13c-.725-.545-1.768-.817-3.083-.817-.86 0-1.723.136-2.584.408s-1.678.635-2.404 1.043l-1.224-3.083c1.224-.68 2.448-1.133 3.672-1.405 1.224-.272 2.448-.363 3.672-.363.952 0 1.95.09 2.947.272.952.18 1.86.5 2.63.952.77.452 1.404 1.042 1.858 1.767.5.725.726 1.632.726 2.72 0 .68-.136 1.27-.408 1.768-.272.5-.635.952-1.043 1.36-.453.408-.952.725-1.45.952-.545.272-1.09.453-1.633.544v.137c.68.09 1.405.272 2.04.544s1.27.59 1.768 1.044c.5.408.952.952 1.27 1.54.316.59.498 1.27.498 2.04 0 1.27-.317 2.313-.907 3.174-.634.86-1.404 1.54-2.356 2.04s-1.995.86-3.128 1.088c-1.133.227-2.267.317-3.355.317-1.314 0-2.628-.136-3.898-.408-1.315-.272-2.448-.725-3.49-1.315l1.223-3.128c.77.408 1.632.77 2.63 1.043s1.994.408 2.99.408c1.633 0 2.857-.317 3.718-.952.86-.634 1.315-1.404 1.315-2.356 0-.635-.136-1.133-.453-1.54-.317-.41-.725-.772-1.224-1.044-.543-.272-1.132-.453-1.858-.544-.68-.09-1.45-.136-2.267-.136h-2.22v-2.9h-.044zm25.342-8.886v7.57c0 1.724-.045 3.31-.09 4.67-.046 1.36-.137 2.81-.228 4.352l.09.09c.545-1.132 1.09-2.22 1.633-3.263l1.632-3.264 5.258-10.11h6.165v21.352h-4.488v-7.57c0-1.588.045-3.174.136-4.76.092-1.588.137-3.174.228-4.806h-.227c-.498 1.315-.996 2.448-1.495 3.445-.5.953-.997 1.95-1.496 2.993-.908 1.768-1.814 3.536-2.72 5.26-.908 1.767-1.86 3.58-2.812 5.394h-6.165v-21.352h4.58zm39.576 0v3.9h-6.483v17.452h-4.67v-17.453h-6.482v-3.9h17.635zm24.253 9.656c0 .408 0 .816-.044 1.18l-.136.996h-14.235c.045 2.04.68 3.58 1.904 4.67 1.223 1.087 2.81 1.63 4.804 1.63 2.085 0 3.99-.316 5.757-.996l.726 3.31c-2.04.86-4.397 1.314-7.163 1.314-1.677 0-3.173-.272-4.488-.77-1.315-.5-2.448-1.225-3.355-2.177s-1.587-2.085-2.085-3.4-.725-2.81-.725-4.443c0-1.632.227-3.173.725-4.533.5-1.404 1.18-2.583 2.04-3.626.86-1.043 1.95-1.813 3.173-2.403 1.27-.588 2.63-.86 4.17-.86 1.36 0 2.585.227 3.673.725 1.09.5 2.04 1.18 2.812 2.085.77.907 1.36 1.95 1.768 3.22.455 1.18.68 2.584.68 4.08zm-4.532-1.224c0-1.677-.408-3.037-1.224-4.08-.816-1.043-1.995-1.54-3.49-1.54-1.406 0-2.54.543-3.537 1.586s-1.54 2.403-1.677 4.035h9.928zm23.664-8.25c.86-.137 1.95-.273 3.264-.364s2.675-.136 4.035-.136c.862 0 1.86.045 2.948.136 1.088.09 2.13.317 3.128.68s1.813.907 2.493 1.632c.68.725.996 1.723.996 2.992 0 .635-.136 1.224-.363 1.723-.227.498-.544.95-.952 1.36-.407.407-.86.68-1.36.95-.498.273-1.042.454-1.586.545l.045.136c1.54.273 2.81.817 3.762 1.678s1.45 2.04 1.45 3.536-.407 2.675-1.223 3.58c-.817.862-1.814 1.542-3.038 1.996-1.224.453-2.448.725-3.808.86-1.315.092-2.54.182-3.58.182-1.18 0-2.313-.045-3.446-.09-1.133-.046-2.085-.137-2.81-.182v-21.216h.044zm4.58 8.522h2.402c.725 0 1.45-.045 2.085-.136.68-.09 1.223-.272 1.722-.5.5-.226.86-.498 1.18-.86.27-.363.407-.816.407-1.36 0-.952-.41-1.677-1.225-2.13-.816-.454-2.085-.68-3.808-.68-.5 0-.952 0-1.315.044-.363.045-.86.09-1.496.136.045 0 .045 5.486.045 5.486zm0 9.475c.588.045 1.087.09 1.45.136.408.044.86.044 1.405.044.635 0 1.315-.045 1.995-.136.68-.09 1.315-.272 1.86-.5.543-.226.996-.588 1.314-.996s.5-.997.5-1.677c0-1.224-.545-2.085-1.633-2.54s-2.54-.68-4.397-.68h-2.493v6.348z"/><g transform="translate(38 33)"><defs><filter id="a" filterUnits="userSpaceOnUse" x="18.582" y="298.213" width="67.31" height="133.484"><feColorMatrix values="1 0 0 0 0 0 1 0 0 0 0 0 1 0 0 0 0 0 1 0"/></filter></defs><mask maskUnits="userSpaceOnUse" x="18.582" y="298.213" width="67.31" height="133.484" id="b"><path fill="#FFF" d="M103.97 347.028L76.8 331.34l-52.41-30.26s-5.81-.663-5.81 2.848V427.22c0 2.63 2.073 3.765 4.602 2.307l53.618-30.96 27.17-15.685s23.053-13.31 26.118-15.078c3.064-1.77 2.77-4.198.184-5.59-2.586-1.394-26.3-15.186-26.3-15.186z" filter="url(#a)"/></mask><linearGradient id="c" gradientUnits="userSpaceOnUse" x1="-36.75" y1="756.645" x2="-36.75" y2="755.467" gradientTransform="matrix(57.134 0 0 -113.303 2151.89 86028.344)"><stop offset="0" stop-color="#257CB0"/><stop offset=".286" stop-color="#4A93B5"/><stop offset=".767" stop-color="#78BCBB"/><stop offset="1" stop-color="#89CFBD"/></linearGradient><path mask="url(#b)" fill="url(#c)" d="M18.582 298.213V431.697l67.31-66.74-67.31-66.744z"/></g><g transform="translate(38 33)"><defs><filter id="d" filterUnits="userSpaceOnUse" x="18.582" y="297.727" width="85.389" height="67.228"><feColorMatrix values="1 0 0 0 0 0 1 0 0 0 0 0 1 0 0 0 0 0 1 0"/></filter></defs><mask maskUnits="userSpaceOnUse" x="18.582" y="297.727" width="85.389" height="67.228" id="e"><path fill="#FFF" d="M103.97 347.028L76.8 331.34l-52.41-30.26s-5.81-.663-5.81 2.848V427.22c0 2.63 2.073 3.765 4.602 2.307l53.618-30.96 27.17-15.685s23.053-13.31 26.118-15.078c3.064-1.77 2.77-4.198.184-5.59-2.586-1.394-26.3-15.186-26.3-15.186z" filter="url(#d)"/></mask><linearGradient id="f" gradientUnits="userSpaceOnUse" x1="-37.373" y1="753.243" x2="-36.195" y2="753.243" gradientTransform="matrix(72.48 0 0 -57.064 2727.328 43314.406)"><stop offset="0" stop-color="#52C1AD"/><stop offset="1" stop-color="#DEE89A"/></linearGradient><path mask="url(#e)" fill="url(#f)" d="M103.97 347.028L76.8 331.34l-58.218-33.613v.485l67.31 66.743 18.08-17.927z"/></g><g transform="translate(38 33)"><defs><filter id="g" filterUnits="userSpaceOnUse" x="18.582" y="364.955" width="85.387" height="67.227"><feColorMatrix values="1 0 0 0 0 0 1 0 0 0 0 0 1 0 0 0 0 0 1 0"/></filter></defs><mask maskUnits="userSpaceOnUse" x="18.582" y="364.955" width="85.387" height="67.227" id="h"><path fill="#FFF" d="M103.97 347.028L76.8 331.34l-52.41-30.26s-5.81-.663-5.81 2.848V427.22c0 2.63 2.073 3.765 4.602 2.307l53.618-30.96 27.17-15.685s23.053-13.31 26.118-15.078c3.064-1.77 2.77-4.198.184-5.59-2.586-1.394-26.3-15.186-26.3-15.186z" filter="url(#g)"/></mask><linearGradient id="i" gradientUnits="userSpaceOnUse" x1="-36.784" y1="753.654" x2="-36.784" y2="752.476" gradientTransform="matrix(72.478 0 0 -57.063 2727.29 43370.715)"><stop offset="0" stop-color="#EC413D"/><stop offset=".167" stop-color="#DA4452"/><stop offset=".575" stop-color="#B0487A"/><stop offset=".862" stop-color="#954A92"/><stop offset="1" stop-color="#8A4A9D"/></linearGradient><path mask="url(#h)" fill="url(#i)" d="M18.582 431.697v.485L76.8 398.567l27.17-15.687-18.077-17.925-67.31 66.742z"/></g><g transform="translate(38 33)"><defs><filter id="j" filterUnits="userSpaceOnUse" x="85.892" y="347.028" width="49.129" height="35.852"><feColorMatrix values="1 0 0 0 0 0 1 0 0 0 0 0 1 0 0 0 0 0 1 0"/></filter></defs><mask maskUnits="userSpaceOnUse" x="85.892" y="347.028" width="49.129" height="35.852" id="k"><path fill="#FFF" d="M103.97 347.028L76.8 331.34l-52.41-30.26s-5.81-.663-5.81 2.848V427.22c0 2.63 2.073 3.765 4.602 2.307l53.618-30.96 27.17-15.685s23.053-13.31 26.118-15.078c3.064-1.77 2.77-4.198.184-5.59-2.586-1.394-26.3-15.186-26.3-15.186z" filter="url(#j)"/></mask><linearGradient id="l" gradientUnits="userSpaceOnUse" x1="-36.446" y1="748.627" x2="-36.446" y2="747.449" gradientTransform="matrix(41.7 0 0 -30.432 1630.286 23129.252)"><stop offset="0" stop-color="#F58879"/><stop offset=".119" stop-color="#F69079"/><stop offset=".713" stop-color="#FCB877"/><stop offset="1" stop-color="#FEC874"/></linearGradient><path mask="url(#k)" fill="url(#l)" d="M103.97 347.028l-18.077 17.927 18.077 17.925 31.052-17.926-31.05-17.926z"/></g><path fill="#F9F9F9" d="M477.342 446.05c-2.528 0-4.835-.467-6.924-1.398-2.09-.933-3.844-2.368-5.26-4.302h-.425c.283 2.267.424 4.416.424 6.445v15.974h-5.876V406.52h4.782l.813 5.313h.283c1.513-2.126 3.273-3.66 5.28-4.604 2.005-.944 4.31-1.416 6.904-1.416 5.148 0 9.122 1.76 11.92 5.278 2.797 3.518 4.197 8.454 4.197 14.804 0 6.376-1.424 11.328-4.267 14.86-2.847 3.53-6.796 5.294-11.85 5.294zm-.85-35.242c-3.968 0-6.836 1.1-8.607 3.294-1.77 2.196-2.68 5.69-2.73 10.485v1.31c0 5.455.91 9.357 2.73 11.707 1.82 2.35 4.736 3.523 8.747 3.523 3.355 0 5.982-1.356 7.884-4.072 1.9-2.714 2.85-6.457 2.85-11.23 0-4.84-.95-8.554-2.85-11.14-1.9-2.586-4.577-3.877-8.025-3.877zM507.07 445.34h-5.878v-55.112h5.88v55.112zM540.875 445.34l-1.17-5.525h-.283c-1.937 2.434-3.867 4.082-5.792 4.94-1.924.865-4.327 1.295-7.207 1.295-3.85 0-6.865-.992-9.05-2.975-2.185-1.983-3.276-4.803-3.276-8.465 0-7.838 6.27-11.947 18.807-12.327l6.59-.213v-2.408c0-3.047-.656-5.297-1.967-6.747-1.31-1.454-3.408-2.18-6.286-2.18-3.235 0-6.896.992-10.98 2.975l-1.806-4.498c1.914-1.04 4.008-1.853 6.29-2.443 2.277-.59 4.56-.887 6.852-.887 4.628 0 8.057 1.026 10.29 3.08 2.23 2.056 3.346 5.35 3.346 9.884v26.492h-4.357zm-13.282-4.142c3.658 0 6.533-1.004 8.624-3.01 2.088-2.006 3.135-4.817 3.135-8.432v-3.506l-5.882.246c-4.675.168-8.043.892-10.112 2.182-2.065 1.286-3.098 3.288-3.098 6.004 0 2.124.642 3.743 1.93 4.85 1.288 1.11 3.087 1.666 5.403 1.666zM548.645 406.522h6.303l8.5 22.138c1.866 5.054 3.024 8.702 3.474 10.946h.283c.308-1.206.952-3.265 1.93-6.184.98-2.917 4.187-11.88 9.616-26.9h6.31l-16.686 44.204c-1.652 4.368-3.583 7.468-5.793 9.3-2.206 1.83-4.916 2.742-8.124 2.742-1.795 0-3.566-.2-5.316-.6v-4.71c1.298.282 2.752.424 4.358.424 4.04 0 6.917-2.267 8.643-6.8l2.16-5.525-15.655-39.035zM368.426 410.13c1.866 1.543 5.763 4.788 5.763 10.963 0 6.005-3.412 8.852-6.822 11.528-1.056 1.055-2.274 2.196-2.274 3.984 0 1.783 1.217 2.758 2.114 3.49l2.924 2.27c3.572 3.004 6.817 5.767 6.817 11.37 0 7.633-7.39 15.344-21.353 15.344-11.775 0-17.456-5.6-17.456-11.613 0-2.922 1.456-7.06 6.253-9.906 5.03-3.086 11.855-3.488 15.508-3.738-1.14-1.46-2.435-3.003-2.435-5.516 0-1.378.408-2.19.812-3.17-.897.082-1.788.164-2.6.164-8.605 0-13.476-6.415-13.476-12.745 0-3.736 1.708-7.88 5.195-10.88 4.63-3.816 10.15-4.467 14.54-4.467h16.72l-5.196 2.923h-5.033zm-5.767 36.052c-.65-.085-1.058-.085-1.866-.085-.73 0-5.12.166-8.527 1.305-1.786.644-6.984 2.593-6.984 8.36 0 5.763 5.605 9.91 14.294 9.91 7.79 0 11.936-3.743 11.936-8.772 0-4.15-2.68-6.332-8.854-10.718zm2.355-15.43c1.865-1.87 2.025-4.465 2.025-5.928 0-5.845-3.49-14.94-10.227-14.94-2.114 0-4.385 1.055-5.684 2.68-1.38 1.706-1.79 3.896-1.79 6.01 0 5.438 3.168 14.452 10.154 14.452 2.03 0 4.217-.974 5.52-2.274zM317.31 444.882c-12.888 0-19.78-10.053-19.78-19.134 0-10.62 8.673-19.696 21-19.696 11.91 0 19.37 9.32 19.37 19.13 0 9.562-7.374 19.7-20.59 19.7zm10.13-6.565c1.95-2.597 2.436-5.838 2.436-9.002 0-7.136-3.405-20.753-13.458-20.753-2.674 0-5.35 1.056-7.294 2.762-3.162 2.833-3.732 6.402-3.732 9.89 0 8.02 3.973 21.23 13.784 21.23 3.16 0 6.404-1.537 8.265-4.127zM273.37 444.882c-12.89 0-19.78-10.053-19.78-19.134 0-10.62 8.675-19.696 20.998-19.696 11.914 0 19.372 9.32 19.372 19.13 0 9.562-7.374 19.7-20.59 19.7zm10.135-6.565c1.945-2.597 2.433-5.838 2.433-9.002 0-7.136-3.407-20.753-13.46-20.753-2.673 0-5.35 1.056-7.294 2.762-3.162 2.833-3.73 6.402-3.73 9.89 0 8.02 3.97 21.23 13.784 21.23 3.162 0 6.403-1.537 8.267-4.127zM247.397 443.61l-11.656 2.69c-4.728.736-8.964 1.383-13.445 1.383-22.497 0-31.052-16.545-31.052-29.505 0-15.81 12.142-30.475 32.927-30.475 4.403 0 8.637.65 12.467 1.71 6.112 1.713 8.964 3.83 10.76 5.054l-6.768 6.438-2.852.65 2.037-3.262c-2.77-2.687-7.827-7.658-17.44-7.658-12.88 0-22.58 9.784-22.58 24.045 0 15.318 11.086 29.744 28.85 29.744 5.22 0 7.905-1.058 10.352-2.038v-13.118l-12.304.65 6.517-3.507h17.28l-2.118 2.038c-.575.49-.654.656-.816 1.302-.085.735-.16 3.1-.16 3.915v9.947z"/><path fill="#F9F9F9" d="M394.186 441.264c-2.69-.245-3.254-.732-3.254-3.914v-46.128c.016-.176.027-.356.044-.525.33-2.85 1.143-3.34 3.672-4.81h-11.66l-6.113 2.936h6.23v.037l-.004-.03v50.317c0 1.627-.32 1.874-2.197 4.317h14.427l3.016-1.788c-1.385-.17-2.773-.25-4.16-.412zM427.35 442.013c-.888.487-1.78 1.056-2.666 1.457-2.675 1.213-5.426 1.54-7.86 1.54-2.583 0-6.633-.168-10.765-3.16-5.743-4.05-8.253-11.01-8.253-17.08 0-12.542 10.198-18.693 18.534-18.693 2.916 0 5.914.727 8.342 2.268 4.043 2.666 5.095 6.146 5.66 8.01l-19.017 7.69-6.233.486c2.02 10.28 8.98 16.265 16.673 16.265 4.127 0 7.123-1.454 9.874-2.827l-4.29 4.045zm-7.606-24.123c1.535-.564 2.344-1.052 2.344-2.184 0-3.235-3.64-6.96-8.015-6.96-3.24 0-9.307 2.51-9.307 11.25 0 1.376.163 2.832.246 4.294l14.732-6.4zM438.162 406.63v5.34h-.65v-5.34h-1.766v-.553h4.182v.554h-1.766zM445.443 411.97v-5.39h-.03l-1.644 5.39h-.51l-1.658-5.39h-.02v5.39h-.59v-5.893h1.01l1.5 4.764h.022l1.48-4.763h1.023v5.894h-.584z"/></svg>